<?xml version="1.0" encoding="utf-8"?>
<!-- Generator: Adobe Illustrator 25.4.0, SVG Export Plug-In . SVG Version: 6.00 Build 0)  -->
<svg version="1.1" id="Calque_1" xmlns="http://www.w3.org/2000/svg" xmlns:xlink="http://www.w3.org/1999/xlink" x="0px" y="0px"
	 viewBox="0 0 700 232.43" style="enable-background:new 0 0 700 232.43;" xml:space="preserve">
<style type="text/css">
	.st0{fill:#1226AA;}
	.st1{fill:#FFCD00;}
</style>
<g>
	<path class="st0" d="M101.73,105.67c0,13.95,8.6,23.5,20.82,23.5c6.5,0,13-2.3,19.87-8.02V82.36c-6.3-0.58-12.04-0.96-18.72-0.96
		C108.61,81.41,101.73,91.53,101.73,105.67 M173.57,60.96v90.95h-31.15v-6.31c-7.26,5.73-15.47,9.18-26.74,9.18
		c-22.36,0-43.96-17.39-43.96-49.67c0.77-29.24,17.77-48.74,46.43-48.74C135.73,56.37,145.48,57.71,173.57,60.96"/>
	<path class="st0" d="M327.62,105.67c0,13.95,8.6,23.5,20.83,23.5c6.5,0,13-2.3,19.88-8.02V82.36c-6.31-0.58-12.04-0.96-18.73-0.96
		C334.51,81.41,327.62,91.53,327.62,105.67 M399.47,60.96v90.95h-31.14v-6.31c-7.27,5.73-15.48,9.18-26.75,9.18
		c-22.36,0-43.95-17.39-43.95-49.67c0.76-29.24,17.77-48.74,46.43-48.74C361.63,56.37,371.38,57.71,399.47,60.96"/>
	<path class="st1" d="M533.69,161.32V140.3l42.8-39.75c12.04-10.88,18.15-17.38,18.15-25.79c0-12.23-8.59-17.58-21.21-17.58
		c-6.69,0-17.38,1.34-34.77,7.08l-6.7-26.57c15.29-5.54,31.92-9.17,46.63-9.17c33.25,0,47.96,19.29,47.96,41.65
		c0,19.3-12.99,33.82-30.2,49.3l-17,14.13h48.92v27.72H533.69z"/>
	<path class="st0" d="M255.61,126.69c-9.56,1.33-14.91,1.33-19.88,1.33c-12.23,0-20.82-9.75-20.82-22.36
		c0-14.13,6.68-24.26,21.97-24.26c6.69,0,12.43,0.38,18.73,0.96V126.69z M231.34,56.37c-28.86,0-45.86,19.5-46.44,48.74
		c0,28.24,18,45.15,39.16,47.89c1.4,0.15,3.57,0.34,6.2,0.44c2.43,0,4.72-0.01,6.98-0.02c7.09-0.33,14.82-1.79,18.58-6.14
		c0.06,3.96-0.25,7.11-0.7,9.7c-0.08,0.5-0.16,0.99-0.26,1.47c-0.34,1.57-0.71,2.82-1.08,3.85c-0.04,0.09-0.06,0.18-0.1,0.27
		c-0.77,2.07-1.55,3.03-1.55,3.03c-3.89,6.55-11.04,10.02-21.76,10.02c-8.03,0-17.39-1.91-28.09-3.82l-4.39,23.69
		c11.27,3.44,23.31,5.74,33.63,5.74c36.49,0,55.22-19.88,55.22-50.64V60.96C266.3,58.86,255.41,56.37,231.34,56.37"/>
	<path class="st0" d="M464.92,128.03c-4.98,0-10.51,0-20.06-1.33V82.36c6.5-0.58,12.03-0.96,18.92-0.96
		c15.29,0,21.98,10.13,21.98,24.26C485.74,118.28,477.14,128.03,464.92,128.03 M469.12,56.37c-17.58,0-33.63,1.72-55.22,4.59V194.9
		h30.96v-30.41v-12v-6.46c0,0,5.88,7.16,27.12,7.34c23.08-0.73,43.57-17.99,43.57-48.27C514.59,75.86,497.98,56.37,469.12,56.37"/>
</g>
</svg>
