<?xml version="1.0" encoding="UTF-8" standalone="no"?>
<!-- Created with Inkscape (http://www.inkscape.org/) -->
<svg
   xmlns:dc="http://purl.org/dc/elements/1.1/"
   xmlns:cc="http://creativecommons.org/ns#"
   xmlns:rdf="http://www.w3.org/1999/02/22-rdf-syntax-ns#"
   xmlns:svg="http://www.w3.org/2000/svg"
   xmlns="http://www.w3.org/2000/svg"
   xmlns:sodipodi="http://sodipodi.sourceforge.net/DTD/sodipodi-0.dtd"
   xmlns:inkscape="http://www.inkscape.org/namespaces/inkscape"
   width="60.094086"
   height="88.350067"
   id="svg4484"
   sodipodi:version="0.32"
   inkscape:version="0.46"
   version="1.0"
   sodipodi:docname="Université de Poitiers.svg"
   inkscape:output_extension="org.inkscape.output.svg.inkscape">
  <defs
     id="defs4486">
    <clipPath
       clipPathUnits="userSpaceOnUse"
       id="clipPath1789">
      <path
         d="M 0,0 L 1,0 L 1,1 L 0,1 L 0,0 z"
         id="path1791" />
    </clipPath>
    <clipPath
       clipPathUnits="userSpaceOnUse"
       id="clipPath1781">
      <path
         d="M -2.06042,-10.2958 L 23.9519,-10.2958 L 23.9519,2.58461 L -2.06042,2.58461 L -2.06042,-10.2958 z"
         id="path1783" />
    </clipPath>
    <clipPath
       clipPathUnits="userSpaceOnUse"
       id="clipPath1769">
      <path
         d="M 0,0 L 1250.55,0 L 1250.55,910.394 L 0,910.394 L 0,0 z"
         id="path1771" />
    </clipPath>
    <clipPath
       clipPathUnits="userSpaceOnUse"
       id="clipPath1759">
      <path
         d="M 95.981,727.712 L 148.241,727.712 L 148.241,798.404 L 95.981,798.404 L 95.981,727.712 z"
         id="path1761" />
    </clipPath>
    <inkscape:perspective
       sodipodi:type="inkscape:persp3d"
       inkscape:vp_x="0 : 526.18109 : 1"
       inkscape:vp_y="0 : 1000 : 0"
       inkscape:vp_z="744.09448 : 526.18109 : 1"
       inkscape:persp3d-origin="372.04724 : 350.78739 : 1"
       id="perspective4492" />
  </defs>
  <sodipodi:namedview
     id="base"
     pagecolor="#ffffff"
     bordercolor="#666666"
     borderopacity="1.0"
     inkscape:pageopacity="0.0"
     inkscape:pageshadow="2"
     inkscape:zoom="5.7385356"
     inkscape:cx="30.047044"
     inkscape:cy="44.175034"
     inkscape:document-units="px"
     inkscape:current-layer="layer1"
     showgrid="false"
     inkscape:window-width="1024"
     inkscape:window-height="712"
     inkscape:window-x="-4"
     inkscape:window-y="-4" />
  <metadata
     id="metadata4489">
    <rdf:RDF>
      <cc:Work
         rdf:about="">
        <dc:format>image/svg+xml</dc:format>
        <dc:type
           rdf:resource="http://purl.org/dc/dcmitype/StillImage" />
      </cc:Work>
    </rdf:RDF>
  </metadata>
  <g
     inkscape:label="Calque 1"
     inkscape:groupmode="layer"
     id="layer1"
     transform="translate(-387.09581,-391.04425)">
    <g
       transform="matrix(1.25,0,0,-1.25,263.27706,1389.0346)"
       id="g1755">
      <g
         id="g1757"
         clip-path="url(#clipPath1759)">
        <g
           id="g1763">
          <g
             id="g1765">
            <g
               id="g1767"
               clip-path="url(#clipPath1769)">
              <g
                 id="g1773">
                <g
                   id="g1775"
                   transform="matrix(48.07527,0,0,70.68068,99.055,727.7116)">
                  <g
                     id="g1777">
                    <g
                       id="g1779"
                       clip-path="url(#clipPath1781)">
                      <g
                         id="g1785">
                        <g
                           id="g1787"
                           clip-path="url(#clipPath1789)">
                          <path
                             d="M 0.0549,0.9259 C 0.0549,0.9539 0.0549,0.9591 0.0546,0.965 C 0.0544,0.9713 0.0535,0.9742 0.05,0.9755 C 0.0491,0.9759 0.0473,0.9761 0.0457,0.9761 C 0.0445,0.9761 0.0439,0.9764 0.0439,0.9777 C 0.0439,0.979 0.0447,0.9794 0.0463,0.9794 C 0.052,0.9794 0.0589,0.9788 0.0621,0.9788 C 0.0647,0.9788 0.0716,0.9794 0.0755,0.9794 C 0.0771,0.9794 0.0779,0.979 0.0779,0.9777 C 0.0779,0.9764 0.0772,0.9761 0.0761,0.9761 C 0.0749,0.9761 0.0743,0.9759 0.073,0.9755 C 0.07,0.9746 0.0692,0.9714 0.069,0.965 C 0.0688,0.9591 0.0688,0.9539 0.0688,0.9259 L 0.0688,0.9 C 0.0688,0.8733 0.0719,0.862 0.0772,0.8546 C 0.0821,0.8478 0.0871,0.8471 0.0908,0.8471 C 0.0956,0.8471 0.1014,0.8496 0.1058,0.857 C 0.1117,0.8672 0.1121,0.8838 0.1121,0.9028 L 0.1121,0.9259 C 0.1121,0.9539 0.1121,0.9591 0.1118,0.965 C 0.1116,0.9713 0.1107,0.9742 0.1072,0.9755 C 0.1063,0.9759 0.1045,0.9761 0.1033,0.9761 C 0.1021,0.9761 0.1014,0.9764 0.1014,0.9777 C 0.1014,0.979 0.1022,0.9794 0.1037,0.9794 C 0.1092,0.9794 0.1161,0.9788 0.1162,0.9788 C 0.1175,0.9788 0.1243,0.9794 0.1285,0.9794 C 0.1301,0.9794 0.1308,0.979 0.1308,0.9777 C 0.1308,0.9764 0.1302,0.9761 0.1289,0.9761 C 0.1277,0.9761 0.127,0.9759 0.1257,0.9755 C 0.1228,0.9746 0.1219,0.9714 0.1217,0.965 C 0.1215,0.9591 0.1215,0.9539 0.1215,0.9259 L 0.1215,0.9061 C 0.1215,0.8856 0.1203,0.8639 0.1112,0.8506 C 0.1035,0.8393 0.0957,0.8373 0.0886,0.8373 C 0.0829,0.8373 0.0724,0.8378 0.0645,0.85 C 0.059,0.8585 0.0549,0.8722 0.0549,0.8989"
                             style="fill:#000917;fill-opacity:1;fill-rule:nonzero;stroke:none"
                             id="path1793" />
                          <path
                             d="M 0.1552,0.862 C 0.1554,0.8493 0.1566,0.8451 0.1585,0.844 C 0.1601,0.843 0.1619,0.8428 0.1635,0.8428 C 0.1645,0.8428 0.1651,0.8425 0.1651,0.8415 C 0.1651,0.8403 0.1642,0.8399 0.1629,0.8399 C 0.1567,0.8399 0.1529,0.8404 0.1511,0.8404 C 0.1502,0.8404 0.1457,0.8399 0.1408,0.8399 C 0.1395,0.8399 0.1387,0.8401 0.1387,0.8415 C 0.1387,0.8425 0.1392,0.8428 0.1402,0.8428 C 0.1414,0.8428 0.1432,0.843 0.1445,0.8437 C 0.147,0.845 0.1474,0.8497 0.1474,0.8638 L 0.1483,0.9598 C 0.1483,0.963 0.1486,0.9653 0.1495,0.9653 C 0.1506,0.9653 0.1515,0.9632 0.1531,0.9603 C 0.1542,0.9582 0.1687,0.9317 0.1826,0.9082 C 0.1891,0.8972 0.202,0.8738 0.2036,0.8712 L 0.2041,0.8712 L 0.2031,0.9441 C 0.2031,0.9539 0.2022,0.957 0.1999,0.9586 C 0.1985,0.9596 0.1962,0.9596 0.1949,0.9596 C 0.1937,0.9596 0.1933,0.9601 0.1933,0.9611 C 0.1933,0.9624 0.1944,0.9625 0.1958,0.9625 C 0.2008,0.9625 0.2053,0.9621 0.2073,0.9621 C 0.2084,0.9621 0.212,0.9625 0.2167,0.9625 C 0.2179,0.9625 0.2189,0.9624 0.2189,0.9611 C 0.2189,0.9601 0.2183,0.9596 0.2172,0.9596 C 0.2162,0.9596 0.2155,0.9596 0.2143,0.9591 C 0.2116,0.9578 0.2109,0.9544 0.2108,0.9453 L 0.2097,0.843 C 0.2097,0.8394 0.2093,0.838 0.2085,0.838 C 0.2074,0.838 0.2063,0.8398 0.2053,0.8415 C 0.1992,0.8513 0.187,0.8725 0.1771,0.8892 C 0.1667,0.9067 0.1561,0.927 0.1544,0.9301 L 0.1541,0.9301"
                             style="fill:#000917;fill-opacity:1;fill-rule:nonzero;stroke:none"
                             id="path1795" />
                          <path
                             d="M 0.2402,0.9155 C 0.2402,0.9402 0.2402,0.9447 0.24,0.9499 C 0.2398,0.9554 0.2388,0.9582 0.2367,0.959 C 0.2357,0.9595 0.2344,0.9596 0.2333,0.9596 C 0.2323,0.9596 0.2318,0.9599 0.2318,0.9612 C 0.2318,0.9622 0.2325,0.9625 0.2341,0.9625 C 0.2377,0.9625 0.2437,0.9621 0.2464,0.9621 C 0.2488,0.9621 0.2545,0.9625 0.2581,0.9625 C 0.2593,0.9625 0.2601,0.9622 0.2601,0.9612 C 0.2601,0.9599 0.2595,0.9596 0.2586,0.9596 C 0.2576,0.9596 0.2568,0.9595 0.2557,0.9591 C 0.2531,0.9583 0.2524,0.9556 0.2522,0.9499 C 0.252,0.9447 0.252,0.9402 0.252,0.9155 L 0.252,0.887 C 0.252,0.8712 0.252,0.8584 0.2524,0.8514 C 0.2526,0.8471 0.2533,0.8441 0.2562,0.8435 C 0.2575,0.8432 0.2596,0.8428 0.261,0.8428 C 0.2621,0.8428 0.2626,0.8424 0.2626,0.8415 C 0.2626,0.8404 0.2618,0.8399 0.2608,0.8399 C 0.2545,0.8399 0.2484,0.8404 0.2459,0.8404 C 0.2437,0.8404 0.2377,0.8399 0.2339,0.8399 C 0.2326,0.8399 0.2319,0.8404 0.2319,0.8415 C 0.2319,0.8424 0.2323,0.8428 0.2335,0.8428 C 0.2349,0.8428 0.2361,0.8432 0.2369,0.8435 C 0.2388,0.8441 0.2394,0.8469 0.2397,0.8516 C 0.2402,0.8584 0.2402,0.8712 0.2402,0.887"
                             style="fill:#000917;fill-opacity:1;fill-rule:nonzero;stroke:none"
                             id="path1797" />
                          <path
                             d="M 0.2745,0.9466 C 0.2723,0.9556 0.2707,0.9573 0.2672,0.959 C 0.2658,0.9596 0.2643,0.9596 0.2635,0.9596 C 0.2627,0.9596 0.2624,0.9601 0.2624,0.9611 C 0.2624,0.9624 0.2634,0.9625 0.2648,0.9625 C 0.2699,0.9625 0.2753,0.9621 0.2787,0.9621 C 0.2811,0.9621 0.2857,0.9625 0.2904,0.9625 C 0.2916,0.9625 0.2926,0.9622 0.2926,0.9611 C 0.2926,0.9599 0.292,0.9596 0.2912,0.9596 C 0.2897,0.9596 0.2882,0.9595 0.2875,0.9585 C 0.2868,0.9577 0.2865,0.9565 0.2865,0.9551 C 0.2865,0.953 0.2874,0.9484 0.2887,0.9426 L 0.3051,0.869 L 0.3055,0.869 C 0.3096,0.8868 0.322,0.939 0.3243,0.9497 C 0.3247,0.9518 0.3251,0.9543 0.3251,0.9557 C 0.3251,0.957 0.3247,0.9583 0.3239,0.9588 C 0.3228,0.9595 0.3213,0.9596 0.3201,0.9596 C 0.3192,0.9596 0.3185,0.9598 0.3185,0.9609 C 0.3185,0.9622 0.3193,0.9625 0.3211,0.9625 C 0.3259,0.9625 0.3299,0.9621 0.3311,0.9621 C 0.3328,0.9621 0.3372,0.9625 0.3401,0.9625 C 0.3413,0.9625 0.3421,0.9622 0.3421,0.9611 C 0.3421,0.9599 0.3415,0.9596 0.3406,0.9596 C 0.3396,0.9596 0.3376,0.9596 0.3359,0.9577 C 0.3347,0.9562 0.3332,0.9535 0.3307,0.9431 C 0.3269,0.9278 0.3244,0.9191 0.3192,0.8991 C 0.3131,0.8754 0.3086,0.8578 0.3065,0.8497 C 0.3041,0.8403 0.3035,0.8377 0.3021,0.8377 C 0.3009,0.8377 0.3003,0.8399 0.2985,0.8476"
                             style="fill:#000917;fill-opacity:1;fill-rule:nonzero;stroke:none"
                             id="path1799" />
                          <path
                             d="M 0.3523,0.9155 C 0.3523,0.9402 0.3523,0.9447 0.3521,0.9499 C 0.3519,0.9554 0.3512,0.958 0.348,0.9591 C 0.3473,0.9595 0.3456,0.9596 0.3443,0.9596 C 0.3433,0.9596 0.3427,0.9599 0.3427,0.9611 C 0.3427,0.9622 0.3433,0.9625 0.3448,0.9625 C 0.3498,0.9625 0.3558,0.9621 0.3585,0.9621 C 0.3616,0.9621 0.3805,0.9621 0.3824,0.9622 C 0.3842,0.9625 0.3857,0.9629 0.3865,0.9632 C 0.3869,0.9633 0.3875,0.9638 0.388,0.9638 C 0.3885,0.9638 0.3886,0.9632 0.3886,0.9624 C 0.3886,0.9612 0.3881,0.9593 0.3878,0.9518 C 0.3877,0.9502 0.3875,0.9431 0.3873,0.9411 C 0.3872,0.9403 0.387,0.9393 0.3864,0.9393 C 0.3857,0.9393 0.3855,0.9402 0.3855,0.9416 C 0.3855,0.9427 0.3854,0.9455 0.3849,0.9475 C 0.3843,0.9504 0.3833,0.9523 0.3785,0.9533 C 0.3769,0.9536 0.3669,0.9539 0.365,0.9539 C 0.3645,0.9539 0.3643,0.9535 0.3643,0.9523 L 0.3643,0.9113 C 0.3643,0.9101 0.3644,0.9095 0.365,0.9095 C 0.3671,0.9095 0.3781,0.9095 0.3803,0.9098 C 0.3825,0.9101 0.384,0.9106 0.3848,0.9123 C 0.3855,0.9136 0.3859,0.9144 0.3864,0.9144 C 0.3867,0.9144 0.387,0.914 0.387,0.9131 C 0.387,0.9121 0.3866,0.9095 0.3863,0.9012 C 0.3861,0.898 0.3859,0.8915 0.3859,0.8904 C 0.3859,0.8891 0.3859,0.8873 0.385,0.8873 C 0.3844,0.8873 0.3842,0.8879 0.3842,0.8887 C 0.3841,0.8904 0.3841,0.8925 0.3838,0.8946 C 0.3833,0.8978 0.382,0.9003 0.3784,0.9009 C 0.3766,0.9012 0.3672,0.9014 0.3649,0.9014 C 0.3644,0.9014 0.3643,0.9007 0.3643,0.8998 L 0.3643,0.887 C 0.3643,0.8814 0.3642,0.8665 0.3643,0.8618 C 0.3645,0.8506 0.366,0.8482 0.3758,0.8482 C 0.3783,0.8482 0.3823,0.8482 0.3847,0.8501 C 0.3872,0.8521 0.3884,0.8555 0.389,0.8621 C 0.3892,0.8639 0.3894,0.8646 0.3901,0.8646 C 0.3908,0.8646 0.3908,0.8633 0.3908,0.8617 C 0.3908,0.8579 0.3901,0.8469 0.3896,0.8437 C 0.3889,0.8394 0.3881,0.8394 0.3845,0.8394 C 0.3701,0.8394 0.3637,0.8404 0.358,0.8404 C 0.3558,0.8404 0.3498,0.8399 0.346,0.8399 C 0.3448,0.8399 0.3441,0.8404 0.3441,0.8415 C 0.3441,0.8424 0.3445,0.8428 0.3456,0.8428 C 0.3471,0.8428 0.3482,0.8432 0.3491,0.8435 C 0.351,0.8441 0.3515,0.8477 0.3518,0.8524 C 0.3523,0.8592 0.3523,0.872 0.3523,0.887"
                             style="fill:#000917;fill-opacity:1;fill-rule:nonzero;stroke:none"
                             id="path1801" />
                          <path
                             d="M 0.4126,0.887 C 0.4126,0.872 0.4126,0.8592 0.4121,0.8524 C 0.4117,0.8477 0.4113,0.8441 0.4093,0.8435 C 0.4085,0.8432 0.4074,0.8428 0.4059,0.8428 C 0.4048,0.8428 0.4044,0.8424 0.4044,0.8415 C 0.4044,0.8404 0.4051,0.8399 0.4063,0.8399 C 0.4101,0.8399 0.4161,0.8404 0.4179,0.8404 C 0.4194,0.8404 0.4264,0.8399 0.4319,0.8399 C 0.4332,0.8399 0.4339,0.8404 0.4339,0.8415 C 0.4339,0.8424 0.4335,0.8428 0.4327,0.8428 C 0.4316,0.8428 0.4295,0.8432 0.428,0.8435 C 0.4252,0.8441 0.4246,0.8477 0.4243,0.8524 C 0.4239,0.8592 0.4239,0.872 0.4239,0.8871 L 0.4239,0.8894 C 0.4239,0.8904 0.4241,0.8907 0.4246,0.8907 L 0.4329,0.8904 C 0.4336,0.8904 0.4341,0.8902 0.4346,0.8892 C 0.4359,0.8868 0.4403,0.8758 0.4441,0.8668 C 0.4494,0.8544 0.453,0.8467 0.4571,0.843 C 0.4596,0.8407 0.462,0.8399 0.4673,0.8399 L 0.4764,0.8399 C 0.4775,0.8399 0.4782,0.8403 0.4782,0.8415 C 0.4782,0.8424 0.4778,0.8428 0.4771,0.8428 C 0.4763,0.8428 0.4754,0.843 0.4744,0.8433 C 0.473,0.8438 0.4691,0.845 0.4637,0.8544 C 0.4581,0.8644 0.4515,0.8789 0.443,0.897 C 0.4527,0.9103 0.4556,0.9213 0.4556,0.9333 C 0.4556,0.9442 0.4518,0.9525 0.4491,0.9556 C 0.444,0.9616 0.4376,0.9625 0.4316,0.9625 C 0.4286,0.9625 0.4214,0.9621 0.4181,0.9621 C 0.4161,0.9621 0.4101,0.9625 0.4051,0.9625 C 0.4036,0.9625 0.403,0.9622 0.403,0.9611 C 0.403,0.9599 0.4035,0.9596 0.4046,0.9596 C 0.4059,0.9596 0.4075,0.9595 0.4083,0.9591 C 0.4114,0.958 0.4122,0.9554 0.4124,0.9499 C 0.4126,0.9447 0.4126,0.9402 0.4126,0.9155 L 0.4126,0.887 z M 0.4239,0.952 C 0.4239,0.9533 0.424,0.9539 0.4247,0.9543 C 0.4257,0.9548 0.4274,0.9549 0.4298,0.9549 C 0.4354,0.9549 0.4443,0.9483 0.4443,0.9252 C 0.4443,0.9119 0.4416,0.9045 0.4387,0.9009 C 0.437,0.8988 0.4358,0.8982 0.4319,0.8982 C 0.4296,0.8982 0.4267,0.8986 0.4247,0.8998 C 0.424,0.9003 0.4239,0.9009 0.4239,0.9027"
                             style="fill:#000917;fill-opacity:1;fill-rule:nonzero;stroke:none"
                             id="path1803" />
                          <path
                             d="M 0.4803,0.8419 C 0.4788,0.843 0.4785,0.8438 0.4785,0.8474 C 0.4785,0.8563 0.4789,0.866 0.479,0.8686 C 0.4791,0.8711 0.4794,0.8729 0.4801,0.8729 C 0.481,0.8729 0.4811,0.8714 0.4811,0.8701 C 0.4811,0.868 0.4814,0.8646 0.4819,0.8618 C 0.484,0.8498 0.4897,0.8454 0.4956,0.8454 C 0.5042,0.8454 0.5084,0.8553 0.5084,0.8639 C 0.5084,0.8719 0.5069,0.8795 0.499,0.8899 L 0.4946,0.8957 C 0.4841,0.9097 0.4805,0.921 0.4805,0.9342 C 0.4805,0.952 0.4893,0.9648 0.5025,0.9648 C 0.5087,0.9648 0.5127,0.9632 0.5152,0.9621 C 0.5161,0.9617 0.5166,0.9612 0.5166,0.9601 C 0.5166,0.958 0.5162,0.9533 0.5162,0.9406 C 0.5162,0.9371 0.5159,0.9358 0.5151,0.9358 C 0.5145,0.9358 0.5142,0.9368 0.5142,0.9387 C 0.5142,0.9402 0.5137,0.9452 0.5117,0.9494 C 0.5103,0.9525 0.5075,0.9573 0.5013,0.9573 C 0.4942,0.9573 0.4899,0.9504 0.4899,0.9406 C 0.4899,0.9332 0.4921,0.9275 0.5,0.9173 L 0.5027,0.9139 C 0.5142,0.8988 0.5184,0.8879 0.5184,0.8725 C 0.5184,0.8631 0.5163,0.8519 0.5094,0.8443 C 0.5046,0.8391 0.4993,0.8377 0.4942,0.8377 C 0.4887,0.8377 0.4844,0.8388 0.4803,0.8419"
                             style="fill:#000917;fill-opacity:1;fill-rule:nonzero;stroke:none"
                             id="path1805" />
                          <path
                             d="M 0.5401,0.9155 C 0.5401,0.9402 0.5401,0.9447 0.5399,0.9499 C 0.5397,0.9554 0.5388,0.9582 0.5367,0.959 C 0.5356,0.9595 0.5344,0.9596 0.5332,0.9596 C 0.5323,0.9596 0.5317,0.9599 0.5317,0.9612 C 0.5317,0.9622 0.5325,0.9625 0.534,0.9625 C 0.5376,0.9625 0.5436,0.9621 0.5464,0.9621 C 0.5488,0.9621 0.5544,0.9625 0.558,0.9625 C 0.5593,0.9625 0.56,0.9622 0.56,0.9612 C 0.56,0.9599 0.5595,0.9596 0.5585,0.9596 C 0.5576,0.9596 0.5568,0.9595 0.5557,0.9591 C 0.5531,0.9583 0.5523,0.9556 0.5521,0.9499 C 0.5519,0.9447 0.5519,0.9402 0.5519,0.9155 L 0.5519,0.887 C 0.5519,0.8712 0.5519,0.8584 0.5523,0.8514 C 0.5526,0.8471 0.5533,0.8441 0.5561,0.8435 C 0.5575,0.8432 0.5596,0.8428 0.561,0.8428 C 0.562,0.8428 0.5625,0.8424 0.5625,0.8415 C 0.5625,0.8404 0.5618,0.8399 0.5607,0.8399 C 0.5544,0.8399 0.5484,0.8404 0.5458,0.8404 C 0.5436,0.8404 0.5376,0.8399 0.5338,0.8399 C 0.5326,0.8399 0.5319,0.8404 0.5319,0.8415 C 0.5319,0.8424 0.5323,0.8428 0.5334,0.8428 C 0.5349,0.8428 0.536,0.8432 0.5369,0.8435 C 0.5388,0.8441 0.5393,0.8469 0.5396,0.8516 C 0.5401,0.8584 0.5401,0.8712 0.5401,0.887"
                             style="fill:#000917;fill-opacity:1;fill-rule:nonzero;stroke:none"
                             id="path1807" />
                          <path
                             d="M 0.5959,0.9535 L 0.5817,0.9528 C 0.5762,0.9525 0.5739,0.9517 0.5724,0.9481 C 0.5715,0.9457 0.571,0.9437 0.5708,0.9424 C 0.5706,0.9411 0.5703,0.9405 0.5698,0.9405 C 0.5691,0.9405 0.5689,0.9413 0.5689,0.9431 C 0.5689,0.9457 0.5707,0.9604 0.5709,0.9617 C 0.5712,0.9638 0.5715,0.9648 0.5721,0.9648 C 0.5728,0.9648 0.5738,0.9632 0.5762,0.9629 C 0.5789,0.9624 0.5826,0.9621 0.5857,0.9621 L 0.6235,0.9621 C 0.6265,0.9621 0.6286,0.9625 0.63,0.9629 C 0.6315,0.9633 0.6322,0.9637 0.6326,0.9637 C 0.6333,0.9637 0.6334,0.9627 0.6334,0.9603 C 0.6334,0.9569 0.6331,0.9457 0.6331,0.9415 C 0.633,0.9398 0.6328,0.9389 0.6322,0.9389 C 0.6315,0.9389 0.6313,0.9397 0.6312,0.9421 L 0.6311,0.9439 C 0.6309,0.9481 0.6283,0.9526 0.6198,0.953 L 0.6078,0.9535 L 0.6078,0.887 C 0.6078,0.872 0.6078,0.8592 0.6083,0.8523 C 0.6086,0.8477 0.6092,0.8441 0.612,0.8435 C 0.6134,0.8432 0.6155,0.8428 0.6169,0.8428 C 0.6179,0.8428 0.6184,0.8424 0.6184,0.8415 C 0.6184,0.8404 0.6176,0.8399 0.6166,0.8399 C 0.6103,0.8399 0.6043,0.8404 0.6016,0.8404 C 0.5994,0.8404 0.5934,0.8399 0.5896,0.8399 C 0.5884,0.8399 0.5877,0.8404 0.5877,0.8415 C 0.5877,0.8424 0.5881,0.8428 0.5892,0.8428 C 0.5907,0.8428 0.5918,0.8432 0.5927,0.8435 C 0.5946,0.8441 0.5951,0.8477 0.5954,0.8524 C 0.5959,0.8592 0.5959,0.872 0.5959,0.887"
                             style="fill:#000917;fill-opacity:1;fill-rule:nonzero;stroke:none"
                             id="path1809" />
                          <path
                             d="M 0.6509,0.9155 C 0.6509,0.9402 0.6509,0.9447 0.6507,0.9499 C 0.6505,0.9554 0.6498,0.958 0.6466,0.9591 C 0.6459,0.9595 0.6443,0.9596 0.6429,0.9596 C 0.6419,0.9596 0.6413,0.9599 0.6413,0.9611 C 0.6413,0.9622 0.642,0.9625 0.6434,0.9625 C 0.6485,0.9625 0.6545,0.9621 0.6571,0.9621 C 0.6602,0.9621 0.6792,0.9621 0.681,0.9622 C 0.6828,0.9625 0.6843,0.9629 0.6851,0.9632 C 0.6856,0.9633 0.6861,0.9638 0.6866,0.9638 C 0.6871,0.9638 0.6872,0.9632 0.6872,0.9624 C 0.6872,0.9612 0.6867,0.9593 0.6864,0.9518 C 0.6863,0.9502 0.6861,0.9431 0.6859,0.9411 C 0.6858,0.9403 0.6856,0.9393 0.685,0.9393 C 0.6843,0.9393 0.6841,0.9402 0.6841,0.9416 C 0.6841,0.9427 0.684,0.9455 0.6836,0.9475 C 0.6829,0.9504 0.6819,0.9523 0.6772,0.9533 C 0.6755,0.9536 0.6655,0.9539 0.6636,0.9539 C 0.6631,0.9539 0.6629,0.9535 0.6629,0.9523 L 0.6629,0.9113 C 0.6629,0.9101 0.663,0.9095 0.6636,0.9095 C 0.6657,0.9095 0.6767,0.9095 0.6789,0.9098 C 0.6812,0.9101 0.6826,0.9106 0.6835,0.9123 C 0.6841,0.9136 0.6845,0.9144 0.685,0.9144 C 0.6854,0.9144 0.6856,0.914 0.6856,0.9131 C 0.6856,0.9121 0.6852,0.9095 0.6849,0.9012 C 0.6847,0.898 0.6845,0.8915 0.6845,0.8904 C 0.6845,0.8891 0.6845,0.8873 0.6836,0.8873 C 0.683,0.8873 0.6828,0.8879 0.6828,0.8887 C 0.6827,0.8904 0.6827,0.8925 0.6824,0.8946 C 0.6819,0.8978 0.6806,0.9003 0.6771,0.9009 C 0.6753,0.9012 0.6658,0.9014 0.6635,0.9014 C 0.663,0.9014 0.6629,0.9007 0.6629,0.8998 L 0.6629,0.887 C 0.6629,0.8814 0.6628,0.8665 0.6629,0.8618 C 0.6631,0.8506 0.6647,0.8482 0.6744,0.8482 C 0.6769,0.8482 0.6809,0.8482 0.6834,0.8501 C 0.6858,0.8521 0.687,0.8555 0.6877,0.8621 C 0.6878,0.8639 0.688,0.8646 0.6887,0.8646 C 0.6895,0.8646 0.6895,0.8633 0.6895,0.8617 C 0.6895,0.8579 0.6887,0.8469 0.6882,0.8437 C 0.6876,0.8394 0.6867,0.8394 0.6831,0.8394 C 0.6687,0.8394 0.6623,0.8404 0.6567,0.8404 C 0.6545,0.8404 0.6485,0.8399 0.6446,0.8399 C 0.6434,0.8399 0.6427,0.8404 0.6427,0.8415 C 0.6427,0.8424 0.6431,0.8428 0.6443,0.8428 C 0.6457,0.8428 0.6468,0.8432 0.6477,0.8435 C 0.6496,0.8441 0.6501,0.8477 0.6505,0.8524 C 0.6509,0.8592 0.6509,0.872 0.6509,0.887 L 0.6509,0.9155 z M 0.6822,0.9883 C 0.6828,0.9864 0.6822,0.9859 0.6817,0.9859 C 0.6813,0.9859 0.6804,0.9862 0.6785,0.9859 C 0.6733,0.9848 0.6657,0.9796 0.6622,0.9763 C 0.6614,0.9757 0.6608,0.975 0.6606,0.975 C 0.6604,0.975 0.66,0.9754 0.66,0.976 C 0.66,0.9766 0.6604,0.9773 0.6609,0.9781 C 0.6647,0.9843 0.6747,0.9969 0.6762,0.9985 C 0.6772,0.9997 0.6778,1 0.6781,1 C 0.6788,1 0.679,0.9995 0.6794,0.9981 C 0.6802,0.9958 0.6811,0.9927 0.6822,0.9883"
                             style="fill:#000917;fill-opacity:1;fill-rule:nonzero;stroke:none"
                             id="path1811" />
                          <path
                             d="M 0.0632,0.1037 L 0.6872,0.1037 L 0.6872,0.8022 L 0.0632,0.8022 L 0.0632,0.1037 z"
                             style="fill:#ffffff;fill-opacity:1;fill-rule:nonzero;stroke:none"
                             id="path1813" />
                          <path
                             d="M 0.366,0.8022 C 0.3638,0.8162 0.0596,0.8105 0.0551,0.808 C 0.0561,0.8057 0.0563,0.7617 0.0562,0.7062 C 0.091,0.7091 0.1304,0.7154 0.1598,0.7223 L 0.1034,0.5788 C 0.1005,0.572 0.0981,0.5628 0.0981,0.5564 C 0.0981,0.5465 0.1093,0.5409 0.1257,0.5409 C 0.1516,0.5409 0.2191,0.564 0.2544,0.6527 L 0.2732,0.6995 L 0.2156,0.6995 L 0.2156,0.7051 C 0.2538,0.7071 0.3014,0.7143 0.3355,0.7223 L 0.2644,0.5429 L 0.3196,0.5429 L 0.3196,0.5349 C 0.3196,0.5349 0.2468,0.5289 0.2009,0.5161 L 0.225,0.578 C 0.1939,0.5524 0.1563,0.5161 0.0999,0.5161 C 0.0822,0.5161 0.0654,0.5225 0.0554,0.5334 C 0.0552,0.4951 0.0551,0.4692 0.0554,0.4713 C 0.0621,0.4626 0.3646,0.4727 0.3689,0.4647 C 0.375,0.4751 0.3667,0.8104 0.366,0.8022"
                             style="fill:#35538e;fill-opacity:1;fill-rule:nonzero;stroke:none"
                             id="path1815" />
                          <path
                             d="M 0.0549,0.8079 C 0.0549,0.8079 0.0551,0.808 0.0551,0.808 C 0.055,0.8082 0.055,0.8082 0.0549,0.8079"
                             style="fill:#35538e;fill-opacity:1;fill-rule:nonzero;stroke:none"
                             id="path1817" />
                          <path
                             d="M 0.5263,0.406 L 0.4687,0.406 L 0.4687,0.4116 C 0.5069,0.4136 0.5539,0.4208 0.588,0.4288 L 0.5662,0.3733 C 0.5938,0.4004 0.6161,0.4252 0.6725,0.4252 C 0.6795,0.4252 0.6857,0.4246 0.6913,0.4235 C 0.6901,0.4448 0.6887,0.4588 0.6871,0.4611 C 0.6843,0.4573 0.3832,0.4526 0.3886,0.4578 C 0.3817,0.4481 0.3825,0.216 0.3872,0.138 C 0.399,0.14 0.4178,0.1435 0.4229,0.1459"
                             style="fill:#cb4248;fill-opacity:1;fill-rule:nonzero;stroke:none"
                             id="path1819" />
                          <path
                             d="M 0.687,0.4613 C 0.687,0.4612 0.687,0.4611 0.6871,0.4611 C 0.6871,0.4611 0.6871,0.4612 0.687,0.4613"
                             style="fill:#cb4248;fill-opacity:1;fill-rule:nonzero;stroke:none"
                             id="path1821" />
                          <path
                             d="M 0.575,0.2226 C 0.5386,0.2226 0.5251,0.2346 0.518,0.251 L 0.4746,0.1459 C 0.4828,0.1423 0.5327,0.1363 0.5327,0.1363 L 0.5327,0.1307 L 0.3877,0.1307 C 0.3886,0.1185 0.3896,0.1117 0.3907,0.1128 C 0.3752,0.1105 0.6904,0.1059 0.704,0.1014 C 0.7013,0.1052 0.6992,0.1881 0.6968,0.2735 C 0.6671,0.2437 0.6242,0.2226 0.575,0.2226"
                             style="fill:#cb4248;fill-opacity:1;fill-rule:nonzero;stroke:none"
                             id="path1823" />
                          <path
                             d="M 0.5721,0.2358 C 0.6338,0.2358 0.6884,0.3261 0.6884,0.3733 C 0.6884,0.3924 0.672,0.4036 0.6496,0.4036 C 0.5915,0.4036 0.5327,0.3221 0.5327,0.267 C 0.5327,0.2494 0.5451,0.2358 0.5721,0.2358"
                             style="fill:#cb4248;fill-opacity:1;fill-rule:nonzero;stroke:none"
                             id="path1825" />
                          <path
                             d="M 0.7043,0.1013 C 0.7043,0.1013 0.7041,0.1014 0.704,0.1014 C 0.7041,0.1013 0.7042,0.1012 0.7043,0.1013"
                             style="fill:#cb4248;fill-opacity:1;fill-rule:nonzero;stroke:none"
                             id="path1827" />
                          <path
                             d="M 0.6896,0.4733 C 0.6956,0.4637 0.3912,0.4622 0.3869,0.4705 C 0.3831,0.4637 0.3923,0.8031 0.3815,0.818 C 0.3831,0.8104 0.6909,0.8008 0.6902,0.8093 C 0.6956,0.8104 0.6916,0.4578 0.6896,0.4733"
                             style="fill:#bf1f32;fill-opacity:1;fill-rule:nonzero;stroke:none"
                             id="path1829" />
                          <path
                             d="M 0.6927,0.6322 L 0.5622,0.6322 C 0.5469,0.6322 0.5307,0.6316 0.5307,0.6175 C 0.5307,0.6034 0.5469,0.6027 0.5622,0.6027 L 0.6924,0.6027 L 0.6913,0.5168 L 0.5494,0.5168 C 0.4665,0.5168 0.4295,0.5658 0.4295,0.6175 C 0.4295,0.6692 0.4665,0.7182 0.5494,0.7182 L 0.6929,0.7182"
                             style="fill:#cf4b4f;fill-opacity:1;fill-rule:nonzero;stroke:none"
                             id="path1831" />
                          <path
                             d="M 0.3736,0.0854 C 0.3667,0.096 0.0595,0.0906 0.0613,0.0873 C 0.0542,0.096 0.0528,0.4562 0.0632,0.461 C 0.0542,0.4539 0.3634,0.4557 0.3659,0.4579 C 0.3667,0.4539 0.3653,0.1025 0.3736,0.0854"
                             style="fill:#e75917;fill-opacity:1;fill-rule:nonzero;stroke:none"
                             id="path1833" />
                          <path
                             d="M 0.0574,0.3962 C 0.0574,0.3962 0.0555,0.3129 0.056,0.3077 C 0.0558,0.3076 0.107,0.3077 0.107,0.3077 L 0.107,0.2607 C 0.107,0.2093 0.1544,0.1771 0.2304,0.1771 C 0.3226,0.1771 0.367,0.2207 0.367,0.2798 L 0.3663,0.3962 L 0.0574,0.3962 z M 0.2654,0.3077 L 0.2654,0.2989 C 0.2654,0.2838 0.2639,0.265 0.2348,0.265 C 0.2047,0.265 0.2008,0.2825 0.2008,0.2986 L 0.2008,0.3077"
                             style="fill:#ed7c3c;fill-opacity:1;fill-rule:nonzero;stroke:none"
                             id="path1835" />
                          <path
                             d="M 0.1697,0.0287 L 0.0417,0.0113 L 0.064,0.086 L 0.1921,0.1002"
                             style="fill:#ffffff;fill-opacity:1;fill-rule:nonzero;stroke:none"
                             id="path1837" />
                          <path
                             d="M 0.1713,0.0546 L 0.1341,0.0546 C 0.132,0.0518 0.13,0.0476 0.13,0.0429 C 0.13,0.0355 0.136,0.032 0.1459,0.032 C 0.1525,0.032 0.1572,0.0335 0.1606,0.0357 L 0.1622,0.0346 C 0.1563,0.031 0.1466,0.0263 0.1374,0.0263 C 0.1256,0.0263 0.1183,0.0334 0.1183,0.0411 C 0.1183,0.0534 0.1335,0.0688 0.1547,0.0688 C 0.1686,0.0688 0.1723,0.0619 0.1713,0.0546 z M 0.1118,0.0302 C 0.1118,0.0302 0.0966,0.0289 0.087,0.0263 L 0.092,0.0389 C 0.0874,0.0338 0.0785,0.0263 0.0684,0.0263 C 0.0599,0.0263 0.055,0.0311 0.055,0.0373 C 0.055,0.0506 0.0695,0.0688 0.0886,0.0688 C 0.0974,0.0688 0.0994,0.0657 0.1013,0.0625 L 0.1103,0.0857 L 0.0983,0.0857 L 0.0983,0.0868 C 0.1063,0.0873 0.1163,0.0888 0.1234,0.0904 L 0.1003,0.0319 L 0.1118,0.0319 L 0.1118,0.0302 z M 0.986,0.0924 C 0.9571,0.1031 0.5601,0.1102 0.5601,0.1102 C 0.5917,0.1139 1,0.1063 1,0.1063 C 0.9478,0.1166 0.4834,0.1134 0.349,0.1123 C 0.296,0.113 0.1525,0.1115 0.0057,0.0878 C 0.0057,0.0878 0.1,0.0978 0.1844,0.1026 C 0.1607,0.0997 0.1461,0.0972 0.1461,0.0972 C -0.0013,0.0834 0.0025,0.0805 0.0025,0.0805 L 0,0.0566 L 0.0047,0.0359 L 0.0058,0.0166 C 0.0039,-0.0108 0.0129,0.004 0.0129,0.004 C 0.5011,0.0824 0.8116,0.0562 0.8116,0.0562 C 0.8183,0.056 0.8696,0.0537 0.8755,0.0536 C 0.885,0.0533 0.9154,0.0523 0.9154,0.0523 C 0.9081,0.0572 0.8333,0.0657 0.8333,0.0657 L 0.8613,0.0637 L 0.911,0.0632 L 0.877,0.0676 C 0.8946,0.0697 0.9637,0.0646 0.9637,0.0646 C 0.8676,0.0816 0.6815,0.0857 0.6099,0.0867 C 0.6388,0.088 0.6835,0.0898 0.7342,0.0901 C 0.8241,0.0906 0.9382,0.0835 0.9382,0.0835 C 0.8495,0.0947 0.6601,0.0942 0.5945,0.0901 C 0.6704,0.1006 0.986,0.0924 0.986,0.0924"
                             style="fill:#f78d11;fill-opacity:1;fill-rule:nonzero;stroke:none"
                             id="path1839" />
                          <path
                             d="M 0.0918,0.0653 C 0.0785,0.0653 0.0654,0.0462 0.0654,0.0367 C 0.0654,0.033 0.0691,0.0311 0.0735,0.0311 C 0.0858,0.0311 0.0989,0.0491 0.0989,0.0601 C 0.0989,0.0631 0.0964,0.0653 0.0918,0.0653"
                             style="fill:#f78d11;fill-opacity:1;fill-rule:nonzero;stroke:none"
                             id="path1841" />
                          <path
                             d="M 0.1537,0.0657 C 0.1459,0.0657 0.139,0.0611 0.136,0.0568 L 0.1618,0.0583 C 0.1618,0.0622 0.16,0.0657 0.1537,0.0657"
                             style="fill:#f78d11;fill-opacity:1;fill-rule:nonzero;stroke:none"
                             id="path1843" />
                          <path
                             d="M 0.294,0.0772 C 0.294,0.0927 0.2766,0.0978 0.2578,0.0978 L 0.207,0.0978 L 0.207,0.0964 C 0.207,0.0964 0.2197,0.0945 0.224,0.093 L 0.224,0.0294 C 0.2196,0.028 0.207,0.0261 0.207,0.0261 L 0.207,0.0246 L 0.2665,0.0246 L 0.2665,0.0261 C 0.2665,0.0261 0.2477,0.028 0.2424,0.0294 L 0.2424,0.0557 C 0.2773,0.0542 0.294,0.0637 0.294,0.0772 z M 0.2755,0.0772 C 0.2755,0.0627 0.2597,0.0567 0.2424,0.0579 L 0.2424,0.093 C 0.2471,0.0939 0.2544,0.0945 0.257,0.0945 C 0.269,0.0945 0.2755,0.0872 0.2755,0.0772"
                             style="fill:#000917;fill-opacity:1;fill-rule:nonzero;stroke:none"
                             id="path1845" />
                          <path
                             d="M 0.3758,0.0504 C 0.3758,0.064 0.3594,0.0748 0.3391,0.0748 C 0.3148,0.0748 0.2954,0.0625 0.2954,0.0465 C 0.2954,0.0326 0.311,0.0227 0.3345,0.0227 C 0.3554,0.0227 0.3758,0.0351 0.3758,0.0504 z M 0.3594,0.0495 C 0.3594,0.0387 0.3509,0.0258 0.3345,0.0258 C 0.3194,0.0258 0.3116,0.0366 0.3116,0.0465 C 0.3116,0.0578 0.3187,0.071 0.3366,0.071 C 0.3515,0.071 0.3594,0.0611 0.3594,0.0495"
                             style="fill:#000917;fill-opacity:1;fill-rule:nonzero;stroke:none"
                             id="path1847" />
                          <path
                             d="M 0.3786,0.0246 L 0.3786,0.0261 C 0.3786,0.0261 0.3893,0.028 0.3929,0.0295 L 0.3929,0.068 C 0.3897,0.0686 0.3832,0.0694 0.3786,0.0694 L 0.3786,0.0708 C 0.3865,0.0714 0.4017,0.0739 0.4077,0.0757 L 0.4077,0.0295 C 0.4105,0.028 0.419,0.0261 0.419,0.0261 L 0.419,0.0246 L 0.3786,0.0246 z M 0.4,0.089 C 0.3949,0.089 0.3906,0.0919 0.3906,0.0953 C 0.3906,0.0988 0.3949,0.1018 0.4,0.1018 C 0.4051,0.1018 0.4094,0.0988 0.4094,0.0953 C 0.4094,0.0919 0.4051,0.089 0.4,0.089"
                             style="fill:#000917;fill-opacity:1;fill-rule:nonzero;stroke:none"
                             id="path1849" />
                          <path
                             d="M 0.4522,0.0227 C 0.4385,0.0227 0.4322,0.0275 0.4322,0.0374 L 0.4322,0.0666 L 0.4233,0.0666 L 0.4233,0.0701 C 0.4351,0.0716 0.4412,0.0764 0.4421,0.0846 L 0.4471,0.0846 L 0.4471,0.0728 L 0.471,0.0728 L 0.4687,0.0666 L 0.4471,0.0666 L 0.4471,0.0369 C 0.4471,0.0322 0.4508,0.0275 0.4591,0.0275 C 0.4653,0.0275 0.4677,0.0287 0.4707,0.0294 L 0.4726,0.0279 C 0.4679,0.0256 0.4604,0.0227 0.4522,0.0227"
                             style="fill:#000917;fill-opacity:1;fill-rule:nonzero;stroke:none"
                             id="path1851" />
                          <path
                             d="M 0.4797,0.0246 L 0.4797,0.0261 C 0.4797,0.0261 0.4903,0.028 0.4939,0.0295 L 0.4939,0.068 C 0.4908,0.0686 0.4843,0.0694 0.4797,0.0694 L 0.4797,0.0708 C 0.4875,0.0714 0.5028,0.0739 0.5087,0.0757 L 0.5087,0.0295 C 0.5115,0.028 0.5201,0.0261 0.5201,0.0261 L 0.5201,0.0246 L 0.4797,0.0246 z M 0.501,0.089 C 0.496,0.089 0.4917,0.0919 0.4917,0.0953 C 0.4917,0.0988 0.496,0.1018 0.501,0.1018 C 0.5062,0.1018 0.5105,0.0988 0.5105,0.0953 C 0.5105,0.0919 0.5062,0.089 0.501,0.089"
                             style="fill:#000917;fill-opacity:1;fill-rule:nonzero;stroke:none"
                             id="path1853" />
                          <path
                             d="M 0.5902,0.0571 C 0.5902,0.0708 0.5748,0.0748 0.563,0.0748 C 0.5388,0.0748 0.5242,0.0578 0.5242,0.0448 C 0.5242,0.0325 0.5369,0.0227 0.5557,0.0227 C 0.5686,0.0227 0.581,0.0285 0.5877,0.0369 L 0.5855,0.0375 C 0.5795,0.0337 0.5718,0.0308 0.563,0.0308 C 0.5504,0.0308 0.5388,0.0369 0.5388,0.0481 C 0.5388,0.051 0.5396,0.054 0.5408,0.0571 L 0.5902,0.0571 z M 0.5754,0.0616 L 0.5421,0.0595 C 0.5455,0.0652 0.5529,0.0703 0.5615,0.0703 C 0.5689,0.0703 0.5755,0.0678 0.5754,0.0616"
                             style="fill:#000917;fill-opacity:1;fill-rule:nonzero;stroke:none"
                             id="path1855" />
                          <path
                             d="M 0.6457,0.0638 C 0.6404,0.0638 0.6383,0.0674 0.6345,0.0674 C 0.6289,0.0674 0.6247,0.0638 0.6221,0.0613 L 0.6221,0.0294 C 0.6259,0.028 0.6376,0.0261 0.6376,0.0261 L 0.6376,0.0246 L 0.593,0.0246 L 0.593,0.0261 C 0.593,0.0261 0.6037,0.028 0.6073,0.0294 L 0.6073,0.068 C 0.6041,0.0686 0.5976,0.0694 0.593,0.0694 L 0.593,0.0708 C 0.6009,0.0714 0.6161,0.0739 0.6221,0.0757 L 0.6221,0.0649 C 0.6272,0.0693 0.6326,0.0748 0.6429,0.0748 C 0.6477,0.0747 0.6528,0.0729 0.6528,0.0691 C 0.6528,0.066 0.6493,0.0638 0.6457,0.0638"
                             style="fill:#000917;fill-opacity:1;fill-rule:nonzero;stroke:none"
                             id="path1857" />
                          <path
                             d="M 0.6768,0.0227 C 0.6714,0.0227 0.662,0.0235 0.6543,0.0254 L 0.6578,0.0394 L 0.6599,0.0394 L 0.662,0.0293 C 0.6662,0.0277 0.6692,0.0261 0.6756,0.0261 C 0.6833,0.0261 0.6896,0.0293 0.6896,0.0333 C 0.6896,0.0421 0.66,0.0464 0.66,0.0611 C 0.66,0.0703 0.6698,0.0748 0.6846,0.0748 C 0.6913,0.0748 0.6969,0.0738 0.7016,0.0733 L 0.7003,0.0599 L 0.6982,0.0599 L 0.6947,0.0681 C 0.6919,0.0687 0.6882,0.0699 0.6827,0.0699 C 0.6778,0.0699 0.6713,0.0684 0.6713,0.0641 C 0.6713,0.0562 0.7028,0.0529 0.7028,0.0377 C 0.7028,0.029 0.693,0.0227 0.6768,0.0227"
                             style="fill:#000917;fill-opacity:1;fill-rule:nonzero;stroke:none"
                             id="path1859" />
                        </g>
                      </g>
                    </g>
                  </g>
                </g>
              </g>
            </g>
          </g>
        </g>
      </g>
    </g>
  </g>
</svg>
