<?xml version="1.0" encoding="UTF-8" standalone="no"?>
<!-- Uploaded to: SVG Repo, www.svgrepo.com, Generator: SVG Repo Mixer Tools -->

<svg
   fill="#000000"
   version="1.1"
   id="Capa_1"
   width="800px"
   height="800px"
   viewBox="0 0 380.122 380.122"
   xml:space="preserve"
   sodipodi:docname="back-drawn-arrow-svgrepo-com.svg"
   inkscape:version="1.4 (86a8ad7, 2024-10-11)"
   xmlns:inkscape="http://www.inkscape.org/namespaces/inkscape"
   xmlns:sodipodi="http://sodipodi.sourceforge.net/DTD/sodipodi-0.dtd"
   xmlns="http://www.w3.org/2000/svg"
   xmlns:svg="http://www.w3.org/2000/svg"><defs
   id="defs1" /><sodipodi:namedview
   id="namedview1"
   pagecolor="#ffffff"
   bordercolor="#000000"
   borderopacity="0.25"
   inkscape:showpageshadow="2"
   inkscape:pageopacity="0.0"
   inkscape:pagecheckerboard="0"
   inkscape:deskcolor="#d1d1d1"
   inkscape:zoom="0.7325"
   inkscape:cx="400"
   inkscape:cy="400"
   inkscape:window-width="1440"
   inkscape:window-height="830"
   inkscape:window-x="-6"
   inkscape:window-y="1073"
   inkscape:window-maximized="1"
   inkscape:current-layer="Capa_1" />
<g
   id="g1"
   transform="matrix(-1,0,0,1,380.12203,0)">
	<path
   d="m 379.632,148.271 c -0.612,-7.344 -10.403,-9.18 -13.464,-3.672 -9.792,-6.12 -22.644,-10.404 -31.824,-15.3 -15.3,-7.956 -31.823,-16.524 -48.96,-21.42 -3.672,-5.508 -14.076,-3.672 -13.464,4.284 1.836,91.8 -115.668,89.964 -181.152,78.948 0,-7.344 0.612,-14.688 0.612,-21.42 0,-3.06 0,-6.12 0,-9.18 0,-1.836 -3.06,-7.344 -3.06,-4.896 0,-0.612 -0.612,-1.224 -0.612,-1.836 -6.732,-18.972 -79.56,29.376 -86.904,41.616 -1.224,2.448 -1.224,6.12 1.224,8.568 1.224,0.612 2.448,1.836 3.06,3.061 v 0 c -0.612,1.224 -0.612,2.447 -0.612,3.06 0.612,7.956 9.792,15.3 14.688,20.196 14.688,15.3 30.6,31.212 47.736,44.063 2.448,1.836 7.344,1.225 9.18,-1.224 0.612,-0.612 0.612,-1.225 1.224,-1.225 0.612,-0.611 0.612,-1.836 0.612,-3.06 0.612,-0.612 1.224,-1.836 1.836,-3.06 0.612,-7.345 0.612,-16.524 3.06,-23.257 0,-0.611 0.612,-1.224 0.612,-1.836 88.128,42.23 308.448,42.23 296.208,-92.41 z M 81.588,226.606 c -0.612,0 -1.836,0 -2.448,0 -9.792,0 -8.568,18.973 -7.344,29.988 -9.792,-7.956 -18.972,-17.136 -28.152,-25.704 -6.732,-6.12 -12.852,-12.239 -18.972,-18.972 -1.836,-2.448 -4.284,-4.284 -6.12,-6.732 -1.224,-1.224 -2.448,-2.447 -3.672,-3.06 -1.224,-0.612 -1.836,-0.612 -1.836,-0.612 l -0.612,-0.611 c 4.896,-3.672 12.24,-9.793 13.464,-10.404 9.18,-6.121 18.36,-11.017 28.152,-15.913 3.672,-1.836 15.912,-5.508 25.092,-10.404 0,0.612 0,1.224 0,1.836 -1.224,7.956 -2.448,15.912 -2.448,24.48 0,5.508 4.284,7.344 7.956,7.344 v 0 c 68.544,29.376 198.288,13.464 202.572,-77.724 13.464,6.732 26.316,13.464 39.78,20.808 9.792,5.508 26.316,17.748 39.168,18.972 -7.344,119.341 -209.916,89.353 -284.58,66.708 z"
   id="path1" />
</g>
</svg>
